<svg xmlns="http://www.w3.org/2000/svg" xmlns:xlink="http://www.w3.org/1999/xlink" width="79.31" height="66.477" viewBox="0 0 79.31 66.477"><defs><filter id="a" x="0.982" y="0" width="77.347" height="66.477" filterUnits="userSpaceOnUse"><feOffset dy="3" input="SourceAlpha"/><feGaussianBlur stdDeviation="3" result="b"/><feFlood flood-opacity="0.161"/><feComposite operator="in" in2="b"/><feComposite in="SourceGraphic"/></filter><filter id="c" x="0" y="4.453" width="79.31" height="43.003" filterUnits="userSpaceOnUse"><feOffset dy="3" input="SourceAlpha"/><feGaussianBlur stdDeviation="3" result="d"/><feFlood flood-opacity="0.161"/><feComposite operator="in" in2="d"/><feComposite in="SourceGraphic"/></filter></defs><g transform="translate(12.482 8.5)"><g transform="matrix(1, 0, 0, 1, -12.48, -8.5)" filter="url(#a)"><path d="M8.435,6H51.912a5.451,5.451,0,0,1,5.435,5.435V44.043a5.451,5.451,0,0,1-5.435,5.435H8.435A5.451,5.451,0,0,1,3,44.043V11.435A5.451,5.451,0,0,1,8.435,6Z" transform="translate(9.48 2.5)" fill="none" stroke="#fff" stroke-linecap="round" stroke-linejoin="round" stroke-width="5"/></g><g transform="matrix(1, 0, 0, 1, -12.48, -8.5)" filter="url(#c)"><path d="M57.347,9,30.173,28.021,3,9" transform="translate(9.48 4.93)" fill="none" stroke="#fff" stroke-linecap="round" stroke-linejoin="round" stroke-width="5"/></g></g></svg>