<svg xmlns="http://www.w3.org/2000/svg" width="410.01" height="399.971" viewBox="0 0 410.01 399.971"><g transform="translate(-1090.257 -133.362)"><path d="M1485.647,246.959a20.673,20.673,0,0,0,1.479-7.429l3.421-3.278,1.507-2.6,2.6-1.542,2.114-6.47,1.724-.966c.238-.13,1.423-.828,1.26-1.845-.143-.892-1.178-1.456-3.359-1.828a42.7,42.7,0,0,1-6.669-1.481l-.208-.078-2.253.926-.973.121v-1.725l-4.533.531-2.013.551c-.857-.865-3.834-3.66-7.058-4.242-2-.353-2.555-.041-3.172.475-.35.293-.712.6-2.221.6h-6.425l-1.212-2.462-.2-.083c-1.731-.726-3.937-1.536-4.629-1.3-.787.257-1.577,1.583-1.8,1.983l-.214,1.229h-2.7l.178-2.429-1.563-1.824-.481-1.479-1.633-.425-.624-4.221-.248-.139c-1.629-.911-4.465-2.44-5.148-2.44-.48,0-2.673-.143-3.682-.207l-1.986-.441-5.046-.446-2.116,1.287-1.9-.186-3.785-.61-1.715-2.635h-.306c-5.66,0-5.66.739-5.65,1.174a2.544,2.544,0,0,1-1.121.591l-2.964,1.13-3.035-4.536-1.254-.422-1.5-2.619-4.95-1.1-2.324-2.486-5.25-1.128c-.23-5.914-.867-6.345-1.081-6.488a10.359,10.359,0,0,1-1.226-1.058V179.79l.573-1.78c.392-.579,1.739-2.705,1.195-3.921a1.384,1.384,0,0,0-1.219-.8,26.676,26.676,0,0,0-4.563,0l-.29.027-.148.257c-.516.891-2.2,3.877-2.2,4.822a36.33,36.33,0,0,1-.754,4.074l-5.412,1.568-3.626-1.634-4.9-.05a2.333,2.333,0,0,1,1.5-1.48c1.519-.616,2.562-1.993,2.427-3.2-.05-.446-.358-1.513-2.128-1.789a2.368,2.368,0,0,1-2.259-1.933l1.166-1.452h1.534l-.447-.853c-1.07-2.041-3.734-6.785-5.378-6.785h-7.507l-2.535,3.99-.9,1.849-1.557-4.131c.545-1,2.239-4.369,1.344-6.089a1.94,1.94,0,0,0-1.721-1.017c-.885-.055-2.036-.024-3.252.007-2.737.075-7.328.193-7.446-1.2-.009-.1-.9-10.319-5.151-10.893a43.483,43.483,0,0,0-7.961,0l-.518.049v.53a6.647,6.647,0,0,1-.388,2.534,1.626,1.626,0,0,1-.3-.307,35.135,35.135,0,0,0-2.384-2.842l-.242-.237-.321.1a3.122,3.122,0,0,1-2.263-.177,2,2,0,0,1-.808-1.527,46.3,46.3,0,0,1-.417-5.322l-.579-1.855a4.1,4.1,0,0,0,.71-3.1,1.913,1.913,0,0,0-1.4-1.21,3.9,3.9,0,0,0-3.448.507,10.994,10.994,0,0,1-2.359,1,58.911,58.911,0,0,1-11.915,1.708c-2.371,0-8.987.555-10.535,1.864-1.287,1.089-4.373,4.434-4.5,4.577l-.158.171.441,27.713,1.162.935-1.4-.334-7.564,7.058c-.087.058-8.648,5.792-12.137,6.835-.51.153-1.562.322-2.9.538-7.861,1.264-26.272,4.227-24.391,17.837.044.229.513,2.033,4.343,3.232l-1.977.743-.182.111a18.11,18.11,0,0,1-5.821,3.441c-1.579.487-4.067-.111-6.7-.747a26.557,26.557,0,0,0-6.814-1.053,47.432,47.432,0,0,1-9.744-1.286,21.465,21.465,0,0,0-2.945-.5h-3.177l-3.967,1.633c-.273-1.955-1.223-7.018-3.964-8.969-.554-.395-1.207-.993-1.167-1.594.043-.622.807-1.149,1.1-1.3l.2-.1,1.254-3.434-.65-.137c-2.259-.475-9.712-1.859-10.782.308-.168.34-.335.392-.39.409-.449.139-1.277-.334-2.008-.754a7.926,7.926,0,0,0-1.715-.814c-1.545-.43-5.951-2.025-5.995-2.042l-.191-.033c-.117,0-1.152.023-1.473.813-.348.857.444,1.8,1.071,2.444,2.221,2.251,2.257,3.268,1.486,4.831-1,2.047-1.69,3.832-.661,6.617.857,2.327,3.72,4.33,4.7,4.959-.127,1.177-.395,4.746.742,6.793.289.511.607,1.021.932,1.543a13.673,13.673,0,0,1,2.492,5.993c.3,3.018-1.5,6.435-1.517,6.469l-.107.2.053.219c.136.553,1.372,5.443,3.118,6.509.9.555,1.9,2.24,1.657,3.14-.115.422-.574.635-1.363.635h-10.588c-.835-.789-1.651-1.868-1.567-2.28.014-.072.148-.126.224-.152.577-.19.85-.5.811-.909-.038-.395-.1-.992-4.381-1.509l-.275-.032-.194.2a10.226,10.226,0,0,1-3.094,2.42h-2.735l-.736.585a1.614,1.614,0,0,0-.124-.888c-.428-.892-1.658-1.219-3.765-1A15.84,15.84,0,0,1,1158,239.1c-1-.175-1.229.05-1.615,1.043-.5,1.262-1.691,1.853-2.848,2.425l-.375.186a6.223,6.223,0,0,0-2.154,2.255,32.982,32.982,0,0,1-3.226-2.785,13.2,13.2,0,0,1-2.4-4.311l-.114-.2a17.226,17.226,0,0,1-2.756-4.337c-.07-.218-.137-.454-.206-.7-.549-1.94-1.386-4.879-5.773-4.552a54.582,54.582,0,0,0-8.248,1.29c-1.3-.173-5.046-.558-6.086.5-1.077,1.085-.409,3.844-.181,4.658l-.187,1.3a6.561,6.561,0,0,0-5.624-1.919c-3.144.214-3.859,1-3.995,2.195a.274.274,0,0,0,0,.1c-.444.059-1.942-.827-3.235-1.852l-.144-.111-.179-.009c-1.623-.078-7.008-.254-8.06.82-.557.566-2.288.789-3.318.8-.55-.186-3-.894-4.081.924a3.336,3.336,0,0,0,.147,2.871c.416,1.187.808,2.308-.113,3.554a5.4,5.4,0,0,0-.766,4.885,4.2,4.2,0,0,0,2.658,2.825c.5.145.808.351.883.582a.8.8,0,0,1-.085.544h-3.357l-.156.128c-.585.481-1.91,1.71-1.555,2.737.306.884,1.514.884,1.911.884,2.167,0,4.482.955,5.054,2.087a1.093,1.093,0,0,1-.142,1.21c-.731,1.045-2.759,1.3-4.239,1.484-1.317.164-2.186.273-2.535.839a.921.921,0,0,0-.079.786c.083.255.234.671.421,1.185.631,1.735,2.109,5.795,1.883,6.941-.223,1.192-.628,2.717-.823,3.45-.064.244-.1.4-.11.434l.555.109.013.014.2.521c1.436-.534,3.176-.779,3.867-.078.36.3,2.221,1.738,3.556,1.217a1.824,1.824,0,0,0,1.077-1.577,1.909,1.909,0,0,1,1.127-1.648c.84-.276,1.981.188,2.987,1.213a3.477,3.477,0,0,1,1.032,2.243c.146,1.029.393,1.815,2.126,1.815.478,0,1.037-.037,1.661-.078,2.748-.181,6.506-.435,10.32,1.932,3.149,1.958,10.522,6.541,10.319,8.955-.17,2.159.837,4.067,1.883,4.491a1.214,1.214,0,0,0,1.465-.4l1.019-1.3-.069-.277a9.166,9.166,0,0,1-.336-3.375,63.424,63.424,0,0,1,7.539,4.22l.16.1.188-.017c3.856-.355,8.372-.472,9.178-.062a4.742,4.742,0,0,1-.382,1.6,10.356,10.356,0,0,0-.737,4.2,18.341,18.341,0,0,1-.012,2.435c-.063,1.2-.108,2.063.42,2.557a1.263,1.263,0,0,0,1.1.284c.269-.04.593-.1.944-.165,2.769-.513,3.445-.382,3.524-.181.527,1.333,3.6,3.035,4.981,2.468.265-.111.876.209,1.183.728.322.546.03.8-.065.877a5.674,5.674,0,0,1-1.6.774c-.935.345-1.82.672-2.16,1.427a1.616,1.616,0,0,0-.006,1.258,1.333,1.333,0,0,0,.732.841,2.155,2.155,0,0,0,1.742-.365c.781-.4,1.285-.611,1.711-.237a8.06,8.06,0,0,0,1.555.954c.922.481,1.967,1.026,2.107,1.749a2.5,2.5,0,0,1-.821,1.864c-.428.51-.884,1.01-1.336,1.5-1.761,1.926-3.423,3.743-3.214,5.834.13,1.3.979,2.5,2.592,3.66,3.169,2.291,4.385,5.137,5.457,7.648a17.722,17.722,0,0,0,2.055,3.9c2.644,3.434,10.067,6.723,10.383,6.862.563.245,2.193,1.311,3.772,2.342,3.675,2.4,5.484,3.533,6.2,3.533.493,0,1.927.885,1.984,1.428.02.179-.367.462-1.264.664-3.019.683-4.382-.267-5.957-1.366-.268-.187-.536-.374-.81-.552-1.547-1.01-3.8-1.634-4.894-.935a1.463,1.463,0,0,0-.636,1.491c.26,2.268,5,3.811,5.644,3.811.71,0,4.093.448,5.194,1.189.281.194.839.514,1.519.9,1.23.7,4.4,2.506,4.862,3.3-1.881.845-3.325,1.478-3.326,1.479l-.626.276.376.578c.092.142,2.23,3.508-.4,6.019a7.75,7.75,0,0,1-1.507,1.6c0-.046-.007-.1-.007-.171v-4.215c.448-1.257.756-3.429-.776-4.086-.429-.188-.927-.359-1.432-.532-1.018-.348-2.285-.782-2.492-1.313-.313-.781-.979-1.544-1.728-1.379-.852.193-1.181,1.36-1.065,3.785.132,2.906,1.182,3.522,2.438,3.982.581.212.964.352,1.2.954a14.875,14.875,0,0,1,.69,3.009,19.95,19.95,0,0,0,1.217,4.773,7.613,7.613,0,0,0,3.759,3.748,3.8,3.8,0,0,1,.916.6c.159.321.591.642,1.822,1.523,2.729,1.954,8.408,6.02,8.71,10.343.145,2.082.485,4.469.832,6.667a19.053,19.053,0,0,0-1.9-4.63,22.858,22.858,0,0,0-4.96-5.375,8.5,8.5,0,0,1-2.176-2.247,7,7,0,0,1,.008-2.175c.107-1.078.184-1.857-.311-2.237a.853.853,0,0,0-.878-.081l-.255.1c-1.147.449-3.281,1.285-3.281,3.678,0,1.238-.367,5.361-.662,8.674-.246,2.763-.4,4.482-.4,4.926-.015.346-.581,2.714-1.18,5.222-1.471,6.156-3.694,15.461-3.694,18.745,0,1.187.133,2.013.784,2.182.8.212,1.386-.8,2.425-2.749a18.732,18.732,0,0,1,.966-1.705c.589-.139,3.559,1.192,3.918,2.141.028.073.052.139-.185.283a5.005,5.005,0,0,1-3.208.905c-1.288-.259-1.577-.019-1.7.085a.606.606,0,0,0-.235.43,26.48,26.48,0,0,1-1.215,2.468l-.066.216c-.043.391-4.317,39.145-13.353,46.892l-.094.1c-1.083,1.513-4.388,5.546-6.653,6.033-1.9.417-2.529,1.512-2.483,2.4a2.242,2.242,0,0,0,2.116,1.985,13.873,13.873,0,0,0,2.285.085,2.44,2.44,0,0,0,.111,1.749.787.787,0,0,0,.641.328,5.515,5.515,0,0,1,.65.095,10.919,10.919,0,0,0,5.465-.129c.683-.251,1.2-.26,1.453-.019a1.853,1.853,0,0,1,.141,1.695,31.925,31.925,0,0,1-2.435,4.764c-.046.058-1.134,1.488.861,3.768,1.271,1.452,2.543,2.122,3.4,1.787a1.282,1.282,0,0,0,.773-1.314,6.4,6.4,0,0,1,.488-2.628l.02.02a14.023,14.023,0,0,1,1.824,2.468l.163.29h3.04l.437,2.236.537-.083a6.191,6.191,0,0,1,4.222.963c1.248.99,3,1.075,4.69,1.155a12.66,12.66,0,0,1,3.314.446c2.139.735,2.366,4.2,2.369,4.233l.058,1.007.825-.559a1.765,1.765,0,0,1,1.224-.218,2.262,2.262,0,0,1,1.363,1.127c1.734,2.787,3.651,2.4,5.683,1.988a7.119,7.119,0,0,0,2.446-1.3c1.717-1.211,2.63-1.665,3.581-.6.44.494.88,1.046,1.332,1.612,1.754,2.195,3.742,4.684,6.636,5.052,2.873.374,6.52-.712,7.829-1.149a3.963,3.963,0,0,0,3.472,2.234c.7,0,1.52-.018,2.438-.039,2.15-.05,4.824-.105,7.485.038,1.043.062,1.959.137,2.742.2,2.53.212,3.684.307,3.966-.591a5.181,5.181,0,0,0-.123-1.986c-.13-.877-.476-3.2-.121-3.534a1.971,1.971,0,0,0,.8-1.39c.017-.077.038-.179.06-.257a5.092,5.092,0,0,1,1.276.763c3.09,2.246,3.815,2.477,7.744,2.477a6.333,6.333,0,0,1,4.792,2.479,2.966,2.966,0,0,0,1.206.962c.478.123,1.882.367,3.368.627,1.26.218,2.542.441,3.233.587.5.1,1,.743,1.491,1.362.647.826,1.382,1.762,2.437,1.762.406,0,1.083-.017,1.883-.037,1.942-.047,4.845-.117,5.97.017-.207.661-.45,1.908,1.5,3.754a9.56,9.56,0,0,0,4.857,2.34c1.114.255,1.756.425,2.012.94a2.8,2.8,0,0,1,.141,1.647,2.2,2.2,0,0,0,1.423,2.744c2.078.844,5.22,2.114,9.108-2.312,1.951-2.228,3.429-1.222,5.876.758a13.18,13.18,0,0,0,3.681,2.363c.643.229,1.213.459,1.735.67a9.38,9.38,0,0,0,3.49.94,7.15,7.15,0,0,0,4.188-1.683c.946-.684,1.8-1.357,2.6-1.984,2.4-1.888,4.135-3.252,6.172-3.252a3.3,3.3,0,0,0,2.492-.635c.678-.7.665-1.876.64-4.222-.006-.525-.012-1.113-.012-1.772,0-5.4.012-17.911.012-17.911v-.256l-.185-.174c-.677-.632-2.5-2.513-2.822-3.619l0-.019c.089.018.181.038.269.057a9.726,9.726,0,0,0,2.173.273,4.979,4.979,0,0,0,4.453-2.38,4.835,4.835,0,0,0,.709-1.978c.238-1.136.427-1.831,1.037-1.906.345-.046.744-.062,1.182-.079,1.742-.073,4.129-.173,6.122-2.018a2.324,2.324,0,0,1,1.949-.873c.773,0,1.707,0,3.524-1.481l.726-.6c8.939-7.354,14.432-10.765,16.315-10.169a.7.7,0,0,1,.482.546c1.153,4.1,2.633,4.116,4.932,3.8.364-.05.753-.1,1.172-.139,2.6-.21,9.733.006,11.518.6a11.568,11.568,0,0,1-1.125.8c-.825.536-1.535,1-1.652,1.71a1.262,1.262,0,0,0,.292,1c.92,1.164,6.977,1.44,9.517,1.5,1.682.108,4.561.113,4.995-1.106.314-.88-.692-1.633-1.023-1.882-.935-.7-1.291-1.379-1.228-1.747a.31.31,0,0,1,.25-.258c.375-.114,1.311.034,2.487,1.283a5.809,5.809,0,0,0,5.568,3.5h5.079l.117-.013a12.347,12.347,0,0,1,2.243-.274,1.376,1.376,0,0,0,.166,1.871,1.077,1.077,0,0,1,.173.23.331.331,0,0,1-.052.132,11.609,11.609,0,0,1-.782,1.136c-.723.973-1.16,1.562-.892,2.11a.76.76,0,0,0,.724.415c.2,0,.575-.047,1.345-.146,2.214-.286,8.095-1.044,9.782.053.644.419,1.2.821,1.715,1.186a10.484,10.484,0,0,0,3.22,1.813,2.44,2.44,0,0,0,.437,1.748c.619.809,1.782,1.132,3.466.961a8.241,8.241,0,0,0,3.7-1.283c1.174-.69,1.881-1.107,4.278-.062.258.114.469.213.641.3-.02,0-.039,0-.057,0-.642.049-1.148.086-1.224.626s.461.735.665.813a11.243,11.243,0,0,0,4.738.251l.55-.085-.07-.56a9.073,9.073,0,0,1-.019-2.367,3.8,3.8,0,0,1,2.492-1.084h.031c.525.008.615.223.645.292.482,1.142,1.068,1.721,1.737,1.721.584,0,1.065-.434,1.427-1.289.116-.276.213-.571.31-.871.429-1.313.8-2.448,3.186-2.448a20.975,20.975,0,0,0,7.431-1.78l.478-.218-.173-.5c-1.157-3.355-1.856-3.934-2.239-4.035a2.3,2.3,0,0,1,.077-1.231,1.048,1.048,0,0,1,.54-.677.884.884,0,0,0,.635-.61,1.153,1.153,0,0,0-.436-1.049c-.094-.1-.27-.3-.3-.315.006-.012.158-.273,1.333-.607a19.606,19.606,0,0,1,3.179-.628,5.068,5.068,0,0,0,3.4-1.447,4.7,4.7,0,0,0,1.193-3.547c.063-1.466.169-1.705.764-1.705,2.5,0,4.29-.244,5.483-1.459a3.151,3.151,0,0,0,.718-2.25c.031-.8.088-.984.334-1.069l.665-.22a16.046,16.046,0,0,0,3.264-1.343,19.576,19.576,0,0,0,2.746-2.346l2.214-.616c1.052-.345,4.505-1.588,4.778-3.144a1.357,1.357,0,0,0-.581-1.326,4.176,4.176,0,0,0-1.705-.891,12.661,12.661,0,0,1,1.193-2.43l.094-.145v-2.21l1.957-1.087a4.766,4.766,0,0,0,3.133-4.687,6.329,6.329,0,0,0-2.165-4.443,1.186,1.186,0,0,0-.065-1.072c-.422-.652-1.428-.713-3.357-.194-1.447.389-3.075,1.012-4.648,1.614-1.834.7-4.607,1.762-5.074,1.5-.878-1.8-3.886-4.7-9.589-4.446-.262-1.119-.877-3.171-1.939-3.613a1.711,1.711,0,0,1-.823-.73,1.842,1.842,0,0,0-.907-.792l-.262-.087a4.606,4.606,0,0,1,.136-1.639c.825-.371.95-1.965.95-2.9v-.4l-3.018-1.183c-.169-.172-.361-.454-.337-.595.008-.052.11-.174.435-.3,2.224-.852,2.917-1.986,3.107-2.779a15.2,15.2,0,0,0,.038-3.359l3.591-3.428-2.6-3.1a2.682,2.682,0,0,0,.529-2.249,1.532,1.532,0,0,0-1.412-.89,24.384,24.384,0,0,0-3.795.114,22.032,22.032,0,0,1-2.736.111,2.993,2.993,0,0,0-.411-.789,2.885,2.885,0,0,1-.6-1.668,5.927,5.927,0,0,1,.071-.866c.135-1.006.16-1.723-.992-3.743l-.186-.328-1.933.224c-.569-.895-1.477-2.737-.9-3.858.529-1.026,2.248-1.228,3.619-1.206a2.922,2.922,0,0,0,2.084.414c1.2-.222,2.294-1.184,3.251-2.861,1.078-1.909,2.005-1.747,3.072-1.558.9.158,2.121.372,2.874-1.3a8.355,8.355,0,0,0,.538-5,3.625,3.625,0,0,1-.07-.933,2.72,2.72,0,0,1,.108-.333c.282-.741.216-1.161-.809-2.913a11.764,11.764,0,0,0-3.6-3.351,7.1,7.1,0,0,1-1.309-1.02c-.327-.441-.632-3.085-.726-5.282l-.024-.556h-3.1l-.238.053a1.133,1.133,0,0,1-1.1-.114c-.562-.435-1.379-1.921-.7-6.987,1.18-.028,4.082-.258,5.626-1.782a3.346,3.346,0,0,0,1.02-2.466c0-3.824-3.828-6.763-4.584-7.306l-1.768-3.393-2.611-.225a.956.956,0,0,1-.187-.7c.089-.316.568-.613,1.312-.814l.241-.065.117-.225a5.5,5.5,0,0,0,.266-4.091,5.726,5.726,0,0,0-3.226-3.144c.3-.939.3-1.591-.006-1.945a.823.823,0,0,0-.857-.245c-.769.2-10.522,2.728-12.237,3.172l-1.43-1.043-.2.013c-3.926.256-3.926,1.093-3.926,1.45a7.655,7.655,0,0,0,.395,1.65c.319,1.095.914,3.132.7,3.7a2.677,2.677,0,0,1-2.349,2.067c-1.625.367-5.558.742-6.5.83-.188-.151-.376-.366-.363-.5s.244-.414,1.05-.729a28.573,28.573,0,0,0,4.549-2.21l.309-.2-.243-1.945.957-2.339a1.425,1.425,0,0,0,.377-1.074,2.339,2.339,0,0,0-1.392-1.695c-.473-.312-1.716-1.344-1.8-2.355a1.528,1.528,0,0,1,.6-1.257,3.47,3.47,0,0,0,1.407-2.708,1.938,1.938,0,0,0-.428-1.059,13.514,13.514,0,0,1,3.192-3.738c1.094-.748,6.812-5.546,6.812-6.739a2.21,2.21,0,0,0-.341-.928,4.66,4.66,0,0,1-.674-3.474,4.546,4.546,0,0,1,2.6-2.42c5.58-2.627,6.048-4.046,6.04-5.207.174-.574,2.68-3.171,4.9-5.247l.078-.09a32.836,32.836,0,0,0,3.038-5.3,8.566,8.566,0,0,1,1.274-1.9c.846-1.061,1.645-2.062,1.274-2.977-.328-.812-1.4-1.019-2.177-1.106l-.2-.02c.38-1.243,1.083-2.739,1.781-2.941l.405-.121c.884-.265,2.222-.668,2.7-.342.043.028.159.105.194.408.222,1.764,2.452,2.236,3.707,2.236h0l4.026.232.168-.132c.5-.39,2.978-2.409,2.978-3.92,0-.269-.008-.549-.018-.826a6.547,6.547,0,0,1,.053-1.641,2.777,2.777,0,0,0,1.663-2.5,7,7,0,0,0-1.4-2.945l-1.311-1.716.583-2.374,1.036-7.391,1.337-1.6-.886-4.508-.208-4.76,4.445-6.036Z" fill="#fffdfd" stroke="#707070" stroke-width="1"/><g transform="translate(1150.322 177.02)"><path d="M1256.065,170.275a53.275,53.275,0,0,1,10.387,2.58c5.628,2.01,2.813,6.432,1.608,9.647s-1.608,4.421-.4,8.441a22.683,22.683,0,0,1,1.205,8.04c0,2.411,4.421,3.215,3.216,4.823a28.166,28.166,0,0,1-3.618,3.618s-1.206,4.823-4.421,5.628a5.843,5.843,0,0,0-4.02,4.02s4.823,3.617,1.608,4.421-5.226,6.431-5.226,6.431l-6.029,1.608h-6.431l-3.618,4.823,2.412,7.236s0,4.823-3.618,6.431,5.226,8.039,2.413,10.049,0,2.814.8,5.226-4.823,5.225-5.226,7.637-1.607,4.02-4.823,6.833-1.206,6.833-8.039,4.823-3.618-.8-6.834,0-.8,1.206-.8,6.029-.4,4.02-2.813,6.432.8,10.451,2.411,11.254,3.215-1.205,5.225,2.413,1.206,3.617,8.844,2.411.4,5.628,7.637,9.647,1.608,4.02,2.01,8.039,10.049,9.646,12.059,9.646,3.215,4.422,8.039,2.01.4-2.411,4.823-2.813,10.854.8,18.088-1.206,11.657-1.205,17.285-4.02-2.411-7.636.8-8.843,3.216-.8,4.422-2.411,2.813-1.206,6.431-1.206,1.608,0,1.205-2.813.4-3.216,1.206-4.421-.4-2.814-2.01-4.824,1.206-5.628.4-6.833-4.02-3.216-3.618-5.628,1.206-3.618,0-4.824-.8-4.02.4-8.039-.8-4.823-5.226-6.833,6.833-3.618,5.226-6.833,7.636-2.413,4.823-6.834-5.226-3.618-4.02-5.628.8-3.617,1.608-7.234,6.833-2.01,9.244-2.01,4.824-4.02,3.216-6.432,4.421-4.02,3.618-5.626-4.824-4.824-4.824-8.442,4.422-5.626,7.236-8.441-.8-4.421-1.608-6.431,3.216-3.216,1.206-6.431,2.01-2.01,4.823-4.824,5.8-11.207,5.8-11.207l4.076-6.407.583-6.115,4.076-2.621" transform="translate(-1127.719 -170.275)" fill="none" stroke="#333" stroke-miterlimit="10" stroke-width="1"/><path d="M1196.688,467.4s-.769-4.693,1.642-5.9,4.422-4.02,6.029-5.628,2.413-.8,4.422-5.225,4.421-4.824,2.01-7.637-.8-4.02-4.02-6.029-7.637-2.01-6.834-5.226,3.618-7.234,3.618-10.451,2.412-6.431,7.236-5.628,10.852-3.618,14.068-2.813,2.411-2.412,8.843-1.206.8-1.608,5.226-2.813,5.628-2.01,4.02-4.02a16.116,16.116,0,0,1-2.411-5.226l3.215-4.02,3.216,2.411.4-4.823s-.4-4.02.8-4.823,3.216-1.206,5.628-3.216,0-3.216,3.618-5.628,3.618-3.618,3.618-7.234-4.421-5.628,0-6.432,4.421.4,7.234.8,2.171,6.913,5.226,5.628c0,0-.4-2.413,4.421-3.216s5.226,0,6.432,2.412,4.02,8.844,2.411,10.451.8,4.02,2.01,4.422,2.01-1.608,4.823-1.206,4.421-6.029,6.431-7.637,5.226-5.628,7.637-5.628,4.02,4.02,4.02,5.628,1.206,5.628,4.421,6.834-1.607-7.236.8-9.245,5.628.4,8.039-2.01,1.205-4.421,4.02-3.216-1.608,6.432,1.608,6.834,2.411-2.412,5.225-2.01,5.226.8,7.236,2.411.8,6.029,3.216,8.039.8,6.029,1.205,8.039,2.814.4,4.421,3.216-3.215,5.626,1.608,4.421,6.834-2.01,8.441-2.01,4.824-.4,4.824-.4l5.628,3.617,2.01,2.413.4,5.626s3.046,1.422,3.215,2.413c.245,1.428-3.215,4.823-3.215,4.823l1.205,7.637-2.813,4.421-4.421,2.814c-2.814,4.02-4.824.8-6.834,5.225s-2.01,5.628-2.01,5.628" transform="translate(-1130.745 -134.143)" fill="none" stroke="#333" stroke-miterlimit="10" stroke-width="1"/><path d="M1174.691,225.226s-.373,2.69,2.04,3.495,2.339,1.5,5.554,1.5,5.226-2.412,7.638-.8,1.384,1.23,5.226,2.412c5.225,1.608,4.421,1.206,7.234,1.608s2.01-2.411,6.834-3.618,7.637-4.421,7.637-2.01-1.608,7.236,1.607,8.039,8.442-4.421,10.853-3.618.4,2.412,2.412,4.422,2.813.8,7.236,4.02a31.331,31.331,0,0,0,8.441,4.421l2.412.8" transform="translate(-1134.798 -160.108)" fill="none" stroke="#333" stroke-miterlimit="10" stroke-width="1"/><path d="M1141.023,276.24s4.88-4.747,6.488-3.139-4.02,4.02-.4,4.02,5.626-2.01,8.039-2.01,2.412-4.02,2.412-4.02l6.029-5.226h9.244l6.432-5.225c6.833-.8,2.411,4.02,7.234,3.618s3.618-1.608,4.824-5.226-.4-4.421.8-6.431-.4-7.637-.4-7.637l1.206-4.421s1.607-4.02.4-7.236a5.462,5.462,0,0,1,.4-5.226" transform="translate(-1141.023 -159.58)" fill="none" stroke="#333" stroke-miterlimit="10" stroke-width="1"/><path d="M1297.442,296.939l2.01,2.814c2.01,2.813,7.637,0,7.637,0s2.411,3.618,4.421,2.813,1.206-5.225,3.618-4.421,2.411,2.01,4.02,6.431,8.039,4.421,10.452,6.029,0,5.628-1.206,6.834-4.823,0-4.823,2.411-2.413,4.823,2.01,4.823,7.636-1.205,9.646-.4,4.824.4,6.432-2.813-1.206-1.608,3.215-1.206,5.628-3.618,6.431-1.608-3.617,6.029,1.206,5.226,5.226-8.039,6.833-11.657,2.413-3.618,6.029-3.618,2.01,5.628,5.226,6.834a22.3,22.3,0,0,0,6.834,1.205s3.617-.4,4.421.8,7.637,0,7.637,0l4.823-5.226,5.628-2.813" transform="translate(-1112.083 -146.84)" fill="none" stroke="#333" stroke-miterlimit="10" stroke-width="1"/><path d="M1275.657,309.49c1.206.8-1.206,5.225,2.813,6.833s5.628,3.618,7.637,4.824,3.216,4.02,1.608,4.823-1.608,2.01.4,3.216,4.421,2.411,2.01,4.421l-7.234,6.029s.4,5.226,2.412,8.441.036,12.657-1.608,12.863c0,0-.8,2.411-5.226,4.823s-5.626,5.226-4.823,6.431,5.628,1.608,2.01,3.216-6.029,3.618-6.029,4.823" transform="translate(-1117.229 -144.518)" fill="none" stroke="#333" stroke-miterlimit="10" stroke-width="1"/><path d="M1176.8,325.39s1.878-4.285,6.3-4.285,1.206,2.813,4.823,2.411,3.618-4.02,8.039-3.216,2.814-3.617,2.814-3.617c1.608-5.226-4.02-8.844-3.216-12.863s1.206-7.235-1.608-9.244-4.421-5.226-1.205-5.628,2.01,2.411,4.421,1.608,2.01-.8,4.823-4.02,3.618-2.01,6.432-2.01,2.8.361,5.627-.8l5.627-4.421" transform="translate(-1134.404 -150.104)" fill="none" stroke="#333" stroke-miterlimit="10" stroke-width="1"/><path d="M1306.6,234.526s1.608,2.413,2.813,4.422-.4,4.421,2.411,4.823,5.226-.8,6.432.8,4.02,4.02,4.02,6.029,1.608,3.618,8.039,3.216,6.833,3.618,10.049-.4,3.618-6.029,6.431-4.421,7.236.4,6.029,2.411,1.091,2.455,1.608,3.618a18.639,18.639,0,0,1,1.608,6.833s.4,3.618,5.627,6.833,8.442.8,9.647-1.205c0,0-1.205-1.206,4.824-2.814s0-5.225,2.411-6.431-2.01,2.814,3.618-2.813,1.205-8.441,5.628-5.628,1.607-4.823,4.421-3.216,3.618,4.02,6.431,3.618a41.8,41.8,0,0,1,10.451.4c1.206.4,2.01,2.814,4.02,4.422s10.049,1.607,10.049,4.421a30,30,0,0,1-1.205,6.833,46.87,46.87,0,0,0,5.628,3.618c2.411,1.206,1.954,6.9,1.954,6.9" transform="translate(-1110.389 -158.388)" fill="none" stroke="#333" stroke-miterlimit="10" stroke-width="1"/><path d="M1260.13,202.641a11.665,11.665,0,0,0,4.824,1.206s5.626-1.608,8.039-.8,1.608,3.215,4.02,2.01,4.02-2.413,6.029-.8,2.012,2.889,3.215,2.814c0,0,8.611.179,10.049,0,0,0,8.039-2.413,10.049-1.206s-.4,4.02,2.814,6.029,6.431,3.618,6.431,3.618" transform="translate(-1118.986 -164.287)" fill="none" stroke="#333" stroke-miterlimit="10" stroke-width="1"/><path d="M1255.381,212.478s2.413,3.618,1.608,5.628-1.608,6.431,1.206,7.637,2.813,7.637,4.823,8.039,3.216,2.813,4.824,3.618-.8,4.421,1.607,5.225,2.01-.8,4.422-.8,4.02-1.608,5.628-1.206,2.813,2.814,5.626,4.02-1.985,4.293.4,4.824c0,0,7.636,1.205,9.244,0s2.411-2.814,3.618-2.01a13.109,13.109,0,0,0,4.02,1.205" transform="translate(-1119.865 -162.467)" fill="none" stroke="#333" stroke-miterlimit="10" stroke-width="1"/><path d="M1415.2,360.774l-3.95-1.761-3.216,3.618c0,2.813-6.029-4.02-8.843-2.411s-4.824,4.421-2.814,4.823,6.432.8,5.226,3.618-4.421,3.618-6.431,3.618-2.412.8-6.431,3.216-5.226.8-5.226,3.215,1.206,5.226-3.618,6.431-3.618,4.02-3.618,6.029-2.411.4-3.617,2.814-2.413,5.225,1.205,4.823,5.628-.4,6.029,1.608,0,2.01-1.205,4.02-.4,2.01-3.618,2.813-6.834-2.813-6.834-2.813c-8.039-.4-5.148-2.92-9.244-2.01,0,0-6.834.8-9.647.8h-4.421" transform="translate(-1103.297 -135.356)" fill="none" stroke="#333" stroke-miterlimit="10" stroke-width="1"/></g></g></svg>