<svg xmlns="http://www.w3.org/2000/svg" xmlns:xlink="http://www.w3.org/1999/xlink" width="345" height="556" viewBox="0 0 345 556"><defs><filter id="a" x="0" y="0" width="345" height="556" filterUnits="userSpaceOnUse"><feOffset dy="3" input="SourceAlpha"/><feGaussianBlur stdDeviation="3" result="b"/><feFlood flood-opacity="0.161"/><feComposite operator="in" in2="b"/><feComposite in="SourceGraphic"/></filter><filter id="c" x="15.009" y="207.431" width="309.284" height="182.567" filterUnits="userSpaceOnUse"><feOffset dy="3" input="SourceAlpha"/><feGaussianBlur stdDeviation="3" result="d"/><feFlood flood-opacity="0.161"/><feComposite operator="in" in2="d"/><feComposite in="SourceGraphic"/></filter></defs><g transform="translate(9.476 6)"><g transform="matrix(1, 0, 0, 1, -9.48, -6)" filter="url(#a)"><text transform="translate(9 401)" fill="#fff" font-size="376" font-family="BrandonGrotesque-Medium, Brandon Grotesque" font-weight="500"><tspan x="0" y="0">M</tspan></text></g><g transform="translate(22.033 214.931)"><g transform="matrix(1, 0, 0, 1, -31.51, -220.93)" filter="url(#c)"><path d="M5546.164-1107.137s62.9-35.441,124.623-35.441,122.271,35.441,122.271,35.441v33.6l14.11,27.532s-67.311,52.992-136.381,52.992-139.9-52.992-139.9-52.992l15.28-30.211Z" transform="translate(-5499.37 1363.51)" fill="#26f7fd" stroke="#1cd3d8" stroke-linecap="round" stroke-linejoin="round" stroke-width="15"/></g><path d="M5588.939-1127.285c-26.062-2.192-52.856,21.191-52.856,21.191s43.6,32.395,66.5,35.561" transform="translate(-5521.04 1171.24)" fill="none" stroke="#1cd3d8" stroke-linecap="round" stroke-linejoin="bevel" stroke-width="15"/><path d="M5610.3-1127.127c16.806,0,49.2,25.7,49.2,25.7s-34.586,25.21-57.727,25.941" transform="translate(-5396.746 1171.813)" fill="none" stroke="#1cd3d8" stroke-linecap="round" stroke-linejoin="bevel" stroke-width="15"/></g></g></svg>