<svg xmlns="http://www.w3.org/2000/svg" xmlns:xlink="http://www.w3.org/1999/xlink" width="263.086" height="259.672" viewBox="0 0 263.086 259.672">
  <defs>
    <filter id="Tracé_50" x="0" y="0" width="263.086" height="259.672" filterUnits="userSpaceOnUse">
      <feOffset dy="3" input="SourceAlpha"/>
      <feGaussianBlur stdDeviation="3" result="blur"/>
      <feFlood flood-opacity="0.161"/>
      <feComposite operator="in" in2="blur"/>
      <feComposite in="SourceGraphic"/>
    </filter>
    <filter id="Tracé_44" x="31.003" y="56.327" width="199.302" height="167.694" filterUnits="userSpaceOnUse">
      <feOffset dy="3" input="SourceAlpha"/>
      <feGaussianBlur stdDeviation="3" result="blur-2"/>
      <feFlood flood-opacity="0.161"/>
      <feComposite operator="in" in2="blur-2"/>
      <feComposite in="SourceGraphic"/>
    </filter>
  </defs>
  <g id="logov2" transform="translate(-7003.793 523.27)">
    <g transform="matrix(1, 0, 0, 1, 7003.79, -523.27)" filter="url(#Tracé_50)">
      <path id="Tracé_50-2" data-name="Tracé 50" d="M1.9,197.9c-.61,4.568,1.524,7.5,5.793,7.5H27.512c2.439,0,5.183-2.284,5.488-4.568L54.951,54.979h1.219L100.328,159.01c.61,1.958,8.586,2.573,11.025,2.573h13.415c2.744,0,10.538-3.616,11.148-5.574l46.168-101.03H183l22.561,145.856a6.4,6.4,0,0,0,5.793,4.568h19.817c4.268,0,6.4-2.937,5.488-7.5l-37.5-219.273c-.61-2.61-3.049-4.894-5.488-4.894h-4.878a5.811,5.811,0,0,0-5.183,3.589L120.194,144.058h-1.219L55.256-22.681c-.61-1.958-3.354-3.589-5.183-3.589H45.2c-2.439,0-4.878,2.284-5.488,4.894Z" transform="translate(12.21 37.27)" fill="#fff" stroke="#fff" stroke-width="10"/>
    </g>
    <g id="Groupe_46" data-name="Groupe 46" transform="translate(7024.045 -461.519)">
      <path id="Tracé_45" data-name="Tracé 45" d="M7087.666-370.376l-17.6-8.368,4.717-21.582,12.887,6.9Z" transform="translate(-7057.057 418.234)" fill="#1cd3d8" stroke="#1cd3d8" stroke-linecap="round" stroke-linejoin="round" stroke-width="10"/>
      <path id="Tracé_47" data-name="Tracé 47" d="M7067.194-377.066,7097.8-375v-34.12L7071.2-395.933Z" transform="translate(-7067.194 493.022)" fill="#1cd3d8" stroke="#1cd3d8" stroke-linecap="round" stroke-linejoin="round" stroke-width="10"/>
      <path id="Tracé_51" data-name="Tracé 51" d="M7058.756-369.876l17.684-5.938-4.287-23.44-13.4,6.143Z" transform="translate(-6866.194 417.734)" fill="#1cd3d8" stroke="#1cd3d8" stroke-linecap="round" stroke-linejoin="round" stroke-width="10"/>
      <path id="Tracé_52" data-name="Tracé 52" d="M7088.831-377.5l-32.853,2.5v-34.12l30.136,14.47Z" transform="translate(-6866.58 493.022)" fill="#1cd3d8" stroke="#1cd3d8" stroke-linecap="round" stroke-linejoin="round" stroke-width="10"/>
      <g transform="matrix(1, 0, 0, 1, -20.25, -61.75)" filter="url(#Tracé_44)">
        <g id="Tracé_44-2" data-name="Tracé 44" transform="translate(40 66.62)" fill="#fff">
          <path d="M 92.26960754394531 143.8972473144531 C 82.08175659179688 143.8972473144531 70.94896697998047 142.1675262451172 59.18049240112305 138.7561492919922 C 49.73301315307617 136.0175476074219 39.86049270629883 132.1961212158203 29.83720588684082 127.3980026245117 C 14.97973728179932 120.2857971191406 4.158530235290527 113.0886077880859 1.499991297721863 111.2693862915039 L 1.499991297721863 17.68515586853027 C 4.5447096824646 16.38179779052734 15.17521381378174 11.97851371765137 29.61651420593262 7.624550819396973 C 39.66091918945313 4.596217632293701 49.55656433105469 2.183884143829346 59.028564453125 0.4545509219169617 C 70.84551239013672 -1.702901482582092 82.0294189453125 -2.79682993888855 92.26960754394531 -2.79682993888855 C 102.5056610107422 -2.79682993888855 113.5153274536133 -1.703711032867432 124.9927749633789 0.4521699845790863 C 134.1914978027344 2.18000340461731 143.7081604003906 4.590265274047852 153.2784423828125 7.615955829620361 C 167.0006713867188 11.95432090759277 176.9288024902344 16.34205627441406 179.8017120361328 17.65776443481445 L 179.8017120361328 111.3005981445313 C 177.319091796875 113.1201095581055 167.2057189941406 120.309700012207 153.0529937744141 127.4141006469727 C 143.5041809082031 132.2074279785156 134.0113067626953 136.0250091552734 124.8380355834961 138.7607879638672 C 113.4097747802734 142.1690979003906 102.4521789550781 143.8972473144531 92.26960754394531 143.8972473144531 Z" stroke="none"/>
          <path d="M 92.26959991455078 -1.296859741210938 C 82.12767028808594 -1.296859741210938 71.04384613037109 -0.212860107421875 59.32599639892578 1.925018310546875 C 49.91497802734375 3.642013549804688 40.08023071289063 6.038192749023438 30.094970703125 9.046966552734375 C 16.896240234375 13.02403259277344 6.893402099609375 17.04399871826172 3 18.6785888671875 L 3 110.4751663208008 C 6.446273803710938 112.7972564697266 16.67788696289063 119.4314041137695 30.43377685546875 126.0205459594727 C 40.38948059082031 130.7893981933594 50.19119262695313 134.5864715576172 59.56667327880859 137.3063201904297 C 71.21112060546875 140.6843872070313 82.21397399902344 142.397216796875 92.26959991455078 142.397216796875 C 102.2964019775391 142.397216796875 113.097900390625 140.6936492919922 124.3740997314453 137.3338470458984 C 133.4562225341797 134.6277465820313 142.8598785400391 130.8487243652344 152.3238220214844 126.1017150878906 C 165.4418334960938 119.5218963623047 175.0699462890625 112.8641967773438 178.3016967773438 110.5362167358398 L 178.3016967773438 18.625 C 174.6329498291016 16.98002624511719 165.2893981933594 12.98362731933594 152.7745971679688 9.029815673828125 C 143.2676239013672 6.026290893554688 133.8163757324219 3.634292602539063 124.683349609375 1.920242309570313 C 113.3088226318359 -0.2144622802734375 102.4032745361328 -1.296859741210938 92.26959991455078 -1.296859741210938 M 92.26959991455078 -4.296859741210938 C 137.5950317382813 -4.296859741210938 181.3016967773438 16.70121765136719 181.3016967773438 16.70121765136719 L 181.3016967773438 112.0551147460938 C 181.3016967773438 112.0551147460938 137.5950317382813 145.397216796875 92.26959991455078 145.397216796875 C 46.94419860839844 145.397216796875 0 112.0551147460938 0 112.0551147460938 L 0 16.70121765136719 C 0 16.70121765136719 46.94419860839844 -4.296859741210938 92.26959991455078 -4.296859741210938 Z" stroke="none" fill="#26f7fd"/>
        </g>
      </g>
      <g id="Tracé_54" data-name="Tracé 54" transform="translate(19.751 61.881)" fill="#1cd3d8">
        <path d="M 92.26960754394531 86.75300598144531 C 82.06958770751953 86.75300598144531 70.92330169677734 85.05728912353516 59.14037322998047 81.71298217773438 C 49.68501663208008 79.02928924560547 39.80484771728516 75.28504943847656 29.77430152893066 70.58426666259766 C 14.95286846160889 63.63827133178711 4.175078868865967 56.62749481201172 1.499991297721863 54.83657836914063 L 1.499991297721863 9.227356910705566 L 31.21879005432129 1.835026741027832 C 30.91044616699219 4.399051189422607 30.63264465332031 8.886405944824219 31.40030097961426 14.33683681488037 C 32.49761199951172 22.1278133392334 36.03994369506836 33.42412185668945 46.68425369262695 42.99581146240234 C 58.19384765625 53.34562301635742 69.98863220214844 61.87052917480469 75.99494171142578 66.03095245361328 C 79.88160705566406 68.72312164306641 83.66334533691406 71.19966888427734 86.64351654052734 73.00438690185547 C 91.18827819824219 75.75655364990234 91.83901214599609 75.75655364990234 92.26960754394531 75.75655364990234 C 92.74470520019531 75.75655364990234 93.46268463134766 75.75655364990234 97.57013702392578 72.96138763427734 C 100.1030883789063 71.23771667480469 103.3763275146484 68.82447814941406 107.0359878540039 65.98259735107422 C 112.1333236694336 62.02431488037109 122.4225158691406 53.77248001098633 134.0615692138672 42.98038482666016 C 138.4352722167969 38.92495727539063 143.6760101318359 34.63550186157227 149.6382293701172 30.23117065429688 C 154.4181060791016 26.70024108886719 159.6678009033203 23.08950424194336 165.2414703369141 19.49926567077637 C 171.6072845458984 15.39877319335938 176.9509124755859 12.25974559783936 179.8017120361328 10.62506008148193 L 179.8017120361328 54.86755752563477 C 177.2975311279297 56.66244125366211 167.1940612792969 63.68476486206055 153.0645904541016 70.62407684326172 C 143.5148773193359 75.31414794921875 134.0209503173828 79.04955291748047 124.8464889526367 81.72650146484375 C 113.4156112670898 85.06183624267578 102.4551544189453 86.75300598144531 92.26960754394531 86.75300598144531 Z" stroke="none"/>
        <path d="M 29.52926635742188 3.800987243652344 L 3 10.39994049072266 L 3 54.03162002563477 C 6.484359741210938 56.3260498046875 16.76113891601563 62.83745574951172 30.51327514648438 69.27398681640625 C 40.45806884765625 73.92854309082031 50.24862670898438 77.63414001464844 59.61297607421875 80.287841796875 C 71.23907470703125 83.58246612548828 82.22634887695313 85.25299072265625 92.26959991455078 85.25299072265625 C 102.302375793457 85.25299072265625 113.1095962524414 83.58548736572266 124.3910217285156 80.29683685302734 C 133.4754943847656 77.64859008789063 142.8812561035156 73.95051574707031 152.3470001220703 69.30531311035156 C 165.4325714111328 62.88374328613281 175.0453796386719 56.38665008544922 178.3016967773438 54.09312057495117 L 178.3016967773438 13.22849273681641 C 175.2962646484375 14.98911285400391 170.9849700927734 17.58388519287109 166.0537414550781 20.76029205322266 C 157.3541259765625 26.36408996582031 144.9188690185547 34.95871353149414 135.0814514160156 44.08028793334961 C 123.4005432128906 54.91119003295898 113.0726699829102 63.19403839111328 107.9560012817383 67.16736602783203 C 104.2719955444336 70.02811431884766 100.9724197387695 72.46048736572266 98.41402435302734 74.20151519775391 C 94.24667358398438 77.03741455078125 93.23867034912109 77.25656127929688 92.26959991455078 77.25656127929688 C 91.53209686279297 77.25656127929688 90.76950073242188 77.25656127929688 85.86650085449219 74.28746032714844 C 82.86097717285156 72.46741485595703 79.05184936523438 69.97309112548828 75.14082336425781 67.2640380859375 C 69.10530090332031 63.08338928222656 57.25237274169922 54.51628875732422 45.6812744140625 44.11116409301758 C 34.70127868652344 34.23759078979492 31.04702758789063 22.58376312255859 29.91494750976563 14.54603576660156 C 29.30928039550781 10.24575805664063 29.33799743652344 6.511550903320313 29.52926635742188 3.800987243652344 M 33.05097961425781 -0.166412353515625 C 33.05097961425781 -0.166412353515625 27.7313232421875 23.93546295166016 47.68722534179688 41.88043975830078 C 67.64311981201172 59.825439453125 90.63544464111328 74.25656127929688 92.26959991455078 74.25656127929688 C 94.18382263183594 74.25656127929688 113.6884002685547 59.825439453125 133.0416717529297 41.88043975830078 C 152.3949737548828 23.93546295166016 181.3016967773438 8.054763793945313 181.3016967773438 8.054763793945313 L 181.3016967773438 55.63201522827148 C 181.3016967773438 55.63201522827148 137.5950317382813 88.25299072265625 92.26959991455078 88.25299072265625 C 46.94416809082031 88.25299072265625 0 55.63201522827148 0 55.63201522827148 L 0 8.054763793945313 L 33.05097961425781 -0.166412353515625 Z" stroke="none" fill="#1cd3d8"/>
      </g>
      <g id="Tracé_55" data-name="Tracé 55" transform="translate(19.751 -26.994)" fill="#1cd3d8">
        <path d="M 13.14200782775879 95.79762268066406 C 13.14138031005859 95.79762268066406 13.14154434204102 95.79762268066406 13.1409158706665 95.79762268066406 C 8.191593170166016 95.79756927490234 3.636042594909668 95.31790924072266 1.500011324882507 95.05335235595703 L 1.500011324882507 48.96607208251953 C 4.470837593078613 47.65707397460938 14.79517269134521 43.26026916503906 28.92258262634277 38.91290664672852 C 38.7606315612793 35.88547897338867 48.4913444519043 33.47385787963867 57.84441757202148 31.74505043029785 C 69.51363372802734 29.58812141418457 80.62172698974609 28.49447822570801 90.86017608642578 28.49447822570801 C 101.1071090698242 28.49447822570801 112.2029647827148 29.58993148803711 123.8395614624023 31.75040626525879 C 133.1636352539063 33.48154830932617 142.8515319824219 35.89607238769531 152.6341705322266 38.92692947387695 C 166.6553802490234 43.27099609375 176.8587188720703 47.65378952026367 179.8018951416016 48.96239471435547 L 179.8018951416016 93.07882690429688 C 172.3778381347656 86.62620544433594 149.89013671875 66.99994659423828 134.0615386962891 52.32316970825195 C 128.5591583251953 47.22119140625 123.2034912109375 44.74107360839844 117.6885375976563 44.74107360839844 C 111.3888931274414 44.74107360839844 106.0333938598633 48.0130729675293 101.3083190917969 50.89988327026367 C 97.591796875 53.17055130004883 94.08139038085938 55.31526565551758 90.92160797119141 55.31526565551758 C 88.09976959228516 55.31526565551758 85.05270385742188 54.3548583984375 81.82672882080078 53.33807373046875 C 77.95700836181641 52.11838150024414 73.57098388671875 50.73595428466797 68.66581726074219 50.73595428466797 C 61.25567626953125 50.73595428466797 54.06546401977539 53.96242904663086 46.68429565429688 60.59981155395508 C 43.63155746459961 63.34490585327148 33.51248931884766 73.50267028808594 31.47067832946777 88.95723724365234 C 31.30793952941895 90.18895721435547 30.73896408081055 91.22280883789063 29.73124885559082 92.11783599853516 C 28.7473201751709 92.99176788330078 27.34412956237793 93.72531127929688 25.56070137023926 94.29811859130859 C 22.46293640136719 95.29304504394531 18.2841682434082 95.79762268066406 13.14200782775879 95.79762268066406 Z" stroke="none"/>
        <path d="M 13.14179039001465 94.29762268066406 C 18.1285400390625 94.29762268066406 22.15261459350586 93.81722259521484 25.1022891998291 92.86980438232422 C 26.68589019775391 92.36115264892578 27.90818977355957 91.73077392578125 28.73526573181152 90.99617767333984 C 29.47188949584961 90.34190368652344 29.86856460571289 89.63157653808594 29.98361587524414 88.76080322265625 C 32.09268951416016 72.79702758789063 42.53201675415039 62.31637573242188 45.68131637573242 59.48442459106445 C 53.35026550292969 52.58825302124023 60.86856460571289 49.2359504699707 68.66581726074219 49.2359504699707 C 73.80176544189453 49.2359504699707 78.30474090576172 50.65522766113281 82.27761840820313 51.90742492675781 C 85.39041137695313 52.8885498046875 88.33056640625 53.81525039672852 90.92161560058594 53.81525039672852 C 93.65943908691406 53.81525039672852 96.99494171142578 51.77740097045898 100.5262908935547 49.61987686157227 C 105.4201126098633 46.62995147705078 110.966911315918 43.2410774230957 117.6885147094727 43.2410774230957 C 123.5994415283203 43.2410774230957 129.2886962890625 45.85207748413086 135.0814208984375 51.22325134277344 C 149.4021759033203 64.50189971923828 169.1857452392578 81.8416748046875 178.3018951416016 89.78491973876953 L 178.3018951416016 49.94098281860352 C 174.5488433837891 48.30567169189453 164.9735107421875 44.32025909423828 152.1902618408203 40.3597526550293 C 142.4632415771484 37.34612655639648 132.8325653076172 34.94572448730469 123.5657424926758 33.22522735595703 C 112.0192413330078 31.08145141601563 101.0154876708984 29.99447631835938 90.86016845703125 29.99447631835938 C 80.72171783447266 29.99447631835938 69.71539306640625 31.07787704467773 58.14693832397461 33.21455001831055 C 48.85681533813477 34.93042755126953 39.18891525268555 37.32500076293945 29.41179084777832 40.3317756652832 C 16.51122665405273 44.29912567138672 6.796056747436523 48.3091926574707 3.000015020370483 49.94841766357422 L 3.000015020370483 93.71733856201172 C 5.370341777801514 93.97562408447266 9.129706382751465 94.29758453369141 13.14136505126953 94.29762268066406 L 13.14179039001465 94.29762268066406 M 13.14089584350586 97.29763031005859 C 6.149900436401367 97.29755401611328 1.494140633440111e-05 96.36622619628906 1.494140633440111e-05 96.36622619628906 L 1.494140633440111e-05 47.99380111694336 C 1.494140633440111e-05 47.99380111694336 45.53471374511719 26.99447631835938 90.86016845703125 26.99447631835938 C 136.1856384277344 26.99447631835938 181.3018951416016 47.99380111694336 181.3018951416016 47.99380111694336 L 181.3018951416016 96.36622619628906 C 181.3018951416016 96.36622619628906 152.3949432373047 71.36804962158203 133.0416412353516 53.42309951782227 C 127.3114776611328 48.10992431640625 122.2567672729492 46.24106597900391 117.6885147094727 46.24106597900391 C 106.8277282714844 46.24106597900391 98.72807312011719 56.81525039672852 90.92161560058594 56.81525039672852 C 84.3504638671875 56.81525039672852 77.3956298828125 52.23593902587891 68.66580963134766 52.23593902587891 C 62.66248321533203 52.23593902587891 55.81871795654297 54.40311050415039 47.68726348876953 61.71515274047852 C 41.44096374511719 67.33202362060547 34.53851318359375 77.18887329101563 32.957763671875 89.15372467041016 C 32.07677841186523 95.82188415527344 21.94205093383789 97.2977294921875 13.14089584350586 97.29763031005859 Z" stroke="none" fill="#1cd3d8"/>
      </g>
      <g id="Tracé_56" data-name="Tracé 56" transform="translate(19.751 -26.994)" fill="#1cd3d8">
        <path d="M 168.1610412597656 95.79759979248047 C 163.0179443359375 95.79759979248047 158.8392944335938 95.29307556152344 155.7411956787109 94.29804992675781 C 153.9577484130859 93.72526550292969 152.5545654296875 92.99171447753906 151.5706329345703 92.11779022216797 C 150.5629119873047 91.22276306152344 149.9939422607422 90.18893432617188 149.8312072753906 88.95721435546875 C 147.7893981933594 73.50269317626953 137.6703186035156 63.34490966796875 134.6175842285156 60.59978866577148 C 127.231201171875 53.95771789550781 120.2224655151367 50.72893142700195 113.1908721923828 50.72893142700195 C 108.5735092163086 50.72893142700195 104.4771575927734 52.08745574951172 100.8630142211914 53.28605270385742 C 97.74627685546875 54.31969451904297 94.8023681640625 55.29600143432617 91.950439453125 55.29600143432617 C 88.90591430664063 55.29600143432617 85.20551300048828 53.57121658325195 80.92082214355469 51.5740966796875 C 75.30655670166016 48.95724105834961 68.94319915771484 45.99121856689453 61.91062927246094 45.99121856689453 C 55.31215286254883 45.99121856689453 49.30239105224609 48.58945465087891 43.53798675537109 53.93438339233398 C 27.95807075500488 68.38057708740234 8.372238159179688 86.55197906494141 1.500011324882507 92.92820739746094 L 1.500011324882507 48.96254348754883 C 4.447834491729736 47.65226745605469 14.68124103546143 43.25743103027344 28.71663093566895 38.91178894042969 C 38.49339294433594 35.88471603393555 48.17512893676758 33.47336196899414 57.49287033081055 31.74474143981934 C 69.11820220947266 29.58802795410156 80.20379638671875 28.49448013305664 90.44170379638672 28.49448013305664 C 100.6801528930664 28.49448013305664 111.7882461547852 29.58812141418457 123.4574661254883 31.74505043029785 C 132.8105316162109 33.47386169433594 142.5412445068359 35.88547897338867 152.3793029785156 38.91290664672852 C 166.5067138671875 43.26026916503906 176.8309936523438 47.65704345703125 179.8018951416016 48.96608352661133 L 179.8018951416016 95.05310821533203 C 177.6638641357422 95.31763458251953 173.1031799316406 95.79759979248047 168.1610412597656 95.79759979248047 Z" stroke="none"/>
        <path d="M 168.1610717773438 94.29759979248047 C 172.1728363037109 94.29759979248047 175.9318542480469 93.97563171386719 178.3018951416016 93.71734619140625 L 178.3018951416016 49.94839859008789 C 174.505615234375 48.3090705871582 164.7906799316406 44.29910659790039 151.8900909423828 40.33177947998047 C 142.1129608154297 37.32500457763672 132.445068359375 34.93042755126953 123.1549377441406 33.21455383300781 C 111.5864639282227 31.07785415649414 100.5801391601563 29.99447822570801 90.44168853759766 29.99447822570801 C 80.30431365966797 29.99447822570801 69.32103729248047 31.0776538848877 57.79693984985352 33.21392822265625 C 48.54276657104492 34.92942810058594 38.92441558837891 37.32345199584961 29.20914077758789 40.32955169677734 C 16.39710998535156 44.29383850097656 6.767083168029785 48.30088043212891 3.000015020370483 49.94147491455078 L 3.000015020370483 89.49030303955078 C 11.35843563079834 81.73535919189453 28.5483455657959 65.78765106201172 42.51808929443359 52.83447647094727 C 48.5728645324707 47.22032928466797 54.91621398925781 44.49123001098633 61.91064071655273 44.49123001098633 C 69.27561187744141 44.49123001098633 75.79904174804688 47.53185272216797 81.55451202392578 50.21452713012695 C 85.50598907470703 52.05632781982422 89.23831176757813 53.79600143432617 91.950439453125 53.79600143432617 C 94.56014251708984 53.79600143432617 97.39234161376953 52.85672760009766 100.3908615112305 51.8623046875 C 104.1127624511719 50.62795257568359 108.3312683105469 49.22892761230469 113.1908645629883 49.22892761230469 C 120.609489440918 49.22892761230469 127.9463119506836 52.58352661132813 135.6205444335938 59.48440170288086 C 138.7698211669922 62.31632995605469 149.2091827392578 72.79692840576172 151.3182830810547 88.76074981689453 C 151.4333343505859 89.63160705566406 151.8300323486328 90.34197998046875 152.5667419433594 90.99627685546875 C 153.3938446044922 91.73088073730469 154.6162109375 92.36125183105469 156.1999206542969 92.86990356445313 C 159.1495666503906 93.81725311279297 163.1738891601563 94.29759979248047 168.1610717773438 94.29759979248047 M 168.1610565185547 97.29759979248047 C 159.3599090576172 97.29759979248047 149.2251129150391 95.82183074951172 148.3441467285156 89.15367889404297 C 146.7633666992188 77.18885040283203 139.8609161376953 67.33200073242188 133.6145935058594 61.71515274047852 C 125.475830078125 54.39653015136719 118.8887557983398 52.22893905639648 113.1908569335938 52.22893905639648 C 104.9177322387695 52.22893905639648 98.51753234863281 56.79600143432617 91.950439453125 56.79600143432617 C 84.33012390136719 56.79600143432617 73.94290161132813 47.4912223815918 61.9106330871582 47.4912223815918 C 56.43209457397461 47.4912223815918 50.61286544799805 49.41995239257813 44.55786514282227 55.03432846069336 C 25.20458984375 72.97927856445313 1.494140633440111e-05 96.36620330810547 1.494140633440111e-05 96.36620330810547 L 1.494140633440111e-05 47.99377822875977 C 1.494140633440111e-05 47.99377822875977 45.11624145507813 26.99447822570801 90.44168853759766 26.99447822570801 C 135.7671661376953 26.99447822570801 181.3018951416016 47.99377822875977 181.3018951416016 47.99377822875977 L 181.3018951416016 96.36620330810547 C 181.3018951416016 96.36620330810547 175.1520538330078 97.29759979248047 168.1610565185547 97.29759979248047 Z" stroke="none" fill="#1cd3d8"/>
      </g>
      <g id="Tracé_57" data-name="Tracé 57" transform="translate(19.751 61.881)" fill="#1cd3d8">
        <path d="M 89.03218078613281 86.75300598144531 C 78.84660339355469 86.75300598144531 67.88615417480469 85.06183624267578 56.45524978637695 81.72650146484375 C 47.28079605102539 79.04955291748047 37.78686904907227 75.31414794921875 28.23715400695801 70.62407684326172 C 14.10767269134521 63.68476486206055 4.004301071166992 56.66251754760742 1.500011324882507 54.86755752563477 L 1.500011324882507 12.20237255096436 C 3.823476552963257 14.9682445526123 7.519391059875488 19.3113899230957 11.99008274078369 24.36562156677246 C 19.0985107421875 32.40185928344727 29.68001174926758 43.93595504760742 39.72232055664063 53.24750518798828 C 50.02886962890625 62.80407333374023 62.38346481323242 68.36528778076172 70.93276977539063 71.34774017333984 C 80.41046142578125 74.654052734375 87.87577056884766 75.75655364990234 89.03218078613281 75.75655364990234 C 89.46277618408203 75.75655364990234 90.11348724365234 75.75655364990234 94.65827178955078 73.00438690185547 C 97.63844299316406 71.19966888427734 101.4201812744141 68.72312164306641 105.3068466186523 66.03095245361328 C 111.3131790161133 61.87052917480469 123.1079635620117 53.34560012817383 134.6175842285156 42.99581146240234 C 145.2618865966797 33.42412185668945 148.8042449951172 22.1278133392334 149.9015655517578 14.33686065673828 C 150.6692199707031 8.886414527893066 150.3914184570313 4.399052619934082 150.0830688476563 1.835026383399963 L 179.8018951416016 9.227356910705566 L 179.8018951416016 54.83641052246094 C 177.1222686767578 56.6297607421875 166.3113250732422 63.6604118347168 151.4761352539063 70.60836029052734 C 141.4519195556641 75.30312347412109 131.578369140625 79.04228973388672 122.1296997070313 81.72197723388672 C 110.3586273193359 85.06031036376953 99.22301483154297 86.75300598144531 89.03218078613281 86.75300598144531 Z" stroke="none"/>
        <path d="M 151.7725372314453 3.800987243652344 C 151.9638061523438 6.511550903320313 151.9925231933594 10.24575805664063 151.3868713378906 14.54603576660156 C 150.2548217773438 22.58376312255859 146.6005554199219 34.23759078979492 135.6205444335938 44.11116409301758 C 124.0494155883789 54.51628875732422 112.1964874267578 63.08338928222656 106.1609649658203 67.2640380859375 C 102.2499160766602 69.97311401367188 98.44078826904297 72.46741485595703 95.43526458740234 74.28746032714844 C 90.53226470947266 77.25656127929688 89.76966857910156 77.25656127929688 89.03216552734375 77.25656127929688 C 88.06536865234375 77.25656127929688 85.48916625976563 76.84588623046875 82.76736450195313 76.25791168212891 C 79.99551391601563 75.65908813476563 75.60653686523438 74.56686401367188 70.43869018554688 72.7640380859375 C 61.75436401367188 69.73446655273438 49.19895935058594 64.08013916015625 38.70240783691406 54.34743881225586 C 28.6151123046875 44.99416351318359 17.99742126464844 33.42106246948242 10.86654663085938 25.35943984985352 C 7.82489013671875 21.92078399658203 5.139862060546875 18.80911254882813 2.999984741210938 16.29732513427734 L 2.999984741210938 54.0938606262207 C 6.242218017578125 56.37906265258789 15.7890625 62.83436584472656 28.84234619140625 69.25013732910156 C 38.32136535644531 73.90914154052734 47.7412109375 77.61886596679688 56.84024047851563 80.27626037597656 C 68.14743804931641 83.57856750488281 78.97836303710938 85.25299072265625 89.03216552734375 85.25299072265625 C 99.075439453125 85.25299072265625 110.0627136230469 83.58246612548828 121.6888427734375 80.287841796875 C 131.0531921386719 77.63414001464844 140.8437652587891 73.92854309082031 150.7885894775391 69.27398681640625 C 164.5407257080078 62.83745574951172 174.8177795410156 56.32585525512695 178.3018646240234 54.0316276550293 L 178.3018646240234 10.39994049072266 L 151.7725372314453 3.800987243652344 M 148.2508392333984 -0.166412353515625 L 181.3018646240234 8.054763793945313 L 181.3018646240234 55.63201522827148 C 181.3018646240234 55.63201522827148 134.357666015625 88.25299072265625 89.03216552734375 88.25299072265625 C 43.70671081542969 88.25299072265625 -1.52587890625e-05 55.63201522827148 -1.52587890625e-05 55.63201522827148 L -1.52587890625e-05 8.054763793945313 C -1.52587890625e-05 8.054763793945313 21.38888549804688 34.20261383056641 40.7421875 52.14759063720703 C 60.09551239013672 70.09255981445313 87.11794281005859 74.25656127929688 89.03216552734375 74.25656127929688 C 90.66634368896484 74.25656127929688 113.6586685180664 59.825439453125 133.6145935058594 41.88043975830078 C 153.5705108642578 23.93546295166016 148.2508392333984 -0.166412353515625 148.2508392333984 -0.166412353515625 Z" stroke="none" fill="#1cd3d8"/>
      </g>
      <path id="Tracé_62" data-name="Tracé 62" d="M7088.831-377.5l-32.853,2.5v-34.12l30.136,14.47Z" transform="translate(-6866.58 493.022)" fill="#1cd3d8" stroke="#1cd3d8" stroke-linecap="round" stroke-linejoin="round" stroke-width="10"/>
      <path id="Tracé_63" data-name="Tracé 63" d="M7058.756-369.876l17.684-5.938-4.287-23.44-13.4,6.143Z" transform="translate(-6866.194 418.734)" fill="#1cd3d8" stroke="#1cd3d8" stroke-linecap="round" stroke-linejoin="round" stroke-width="10"/>
      <path id="Tracé_64" data-name="Tracé 64" d="M7087.666-370.376l-17.6-8.368,4.717-21.582,12.887,6.9Z" transform="translate(-7057.057 419.234)" fill="#1cd3d8" stroke="#1cd3d8" stroke-linecap="round" stroke-linejoin="round" stroke-width="10"/>
      <path id="Tracé_65" data-name="Tracé 65" d="M7067.194-377.066,7097.8-375v-34.12L7071.2-395.933Z" transform="translate(-7067.194 493.022)" fill="#1cd3d8" stroke="#1cd3d8" stroke-linecap="round" stroke-linejoin="round" stroke-width="10"/>
    </g>
  </g>
</svg>
