<svg xmlns="http://www.w3.org/2000/svg" xmlns:xlink="http://www.w3.org/1999/xlink" width="281" height="91" viewBox="0 0 281 91">
  <defs>
    <filter id="Tracé_50" x="67.777" y="23.261" width="51.362" height="50.919" filterUnits="userSpaceOnUse">
      <feOffset dy="3" input="SourceAlpha"/>
      <feGaussianBlur stdDeviation="3" result="blur"/>
      <feFlood flood-opacity="0.161"/>
      <feComposite operator="in" in2="blur"/>
      <feComposite in="SourceGraphic"/>
    </filter>
    <filter id="Tracé_44" x="72.637" y="31.389" width="41.414" height="37.332" filterUnits="userSpaceOnUse">
      <feOffset dy="3" input="SourceAlpha"/>
      <feGaussianBlur stdDeviation="3" result="blur-2"/>
      <feFlood flood-opacity="0.161"/>
      <feComposite operator="in" in2="blur-2"/>
      <feComposite in="SourceGraphic"/>
    </filter>
    <filter id="soli_asque.fr" x="0" y="0" width="281" height="91" filterUnits="userSpaceOnUse">
      <feOffset dy="3" input="SourceAlpha"/>
      <feGaussianBlur stdDeviation="3" result="blur-3"/>
      <feFlood flood-opacity="0.161"/>
      <feComposite operator="in" in2="blur-3"/>
      <feComposite in="SourceGraphic"/>
    </filter>
  </defs>
  <g id="solimasque.fr" transform="translate(-292.869 -215)">
    <g id="favicon2" transform="translate(371.148 245.761)">
      <g transform="matrix(1, 0, 0, 1, -78.28, -30.76)" filter="url(#Tracé_50)">
        <path id="Tracé_50-2" data-name="Tracé 50" d="M1.814,2.68c-.079.59.2.969.748.969H5.121a.779.779,0,0,0,.709-.59L8.665-15.777h.157l5.7,13.435c.079.253,1.109.332,1.424.332h1.732a2.528,2.528,0,0,0,1.44-.72l5.962-13.047H25.2L28.115,3.059a.827.827,0,0,0,.748.59h2.559c.551,0,.827-.379.709-.969L27.288-25.638a.811.811,0,0,0-.709-.632h-.63a.75.75,0,0,0-.669.464L17.09-4.273h-.157L8.7-25.806a.8.8,0,0,0-.669-.464H7.4a.811.811,0,0,0-.709.632Z" transform="translate(76.48 57.03)" fill="#fff" stroke="#fff" stroke-width="3"/>
      </g>
      <g id="Groupe_46" data-name="Groupe 46" transform="translate(0.807 6.554)">
        <g id="Groupe_49" data-name="Groupe 49">
          <path id="Tracé_45" data-name="Tracé 45" d="M7072.336-396.458l-2.274-1.081.609-2.787,1.665.891Z" transform="translate(-7068.383 402.638)" fill="#1cd3d8" stroke="#1cd3d8" stroke-linecap="round" stroke-linejoin="round" stroke-width="3"/>
          <path id="Tracé_47" data-name="Tracé 47" d="M7067.194-404.978l3.953.267v-4.406l-3.437,1.7Z" transform="translate(-7067.194 419.953)" fill="#1cd3d8" stroke="#1cd3d8" stroke-linecap="round" stroke-linejoin="round" stroke-width="3"/>
          <path id="Tracé_51" data-name="Tracé 51" d="M7058.756-395.46l2.283-.767-.554-3.027-1.729.793Z" transform="translate(-7033.888 401.641)" fill="#1cd3d8" stroke="#1cd3d8" stroke-linecap="round" stroke-linejoin="round" stroke-width="3"/>
          <path id="Tracé_52" data-name="Tracé 52" d="M7060.221-405.033l-4.242.323v-4.406l3.892,1.869Z" transform="translate(-7031.519 419.953)" fill="#1cd3d8" stroke="#1cd3d8" stroke-linecap="round" stroke-linejoin="round" stroke-width="3"/>
        </g>
        <g id="Groupe_50" data-name="Groupe 50">
          <g transform="matrix(1, 0, 0, 1, -79.09, -37.31)" filter="url(#Tracé_44)">
            <path id="Tracé_44-2" data-name="Tracé 44" d="M0-1.585A33.935,33.935,0,0,1,11.916-4.3a30.418,30.418,0,0,1,11.5,2.712V10.729s-5.644,4.306-11.5,4.306S0,10.729,0,10.729Z" transform="translate(81.64 41.69)" fill="#fff"/>
          </g>
          <g id="Tracé_54" data-name="Tracé 54" transform="translate(2.551 8.136)" fill="#1cd3d8">
            <path d="M 14.55936622619629 9.458303451538086 C 14.58072948455811 9.441767692565918 14.6024284362793 9.424944877624512 14.6241979598999 9.408041000366211 C 15.29933738708496 8.883770942687988 16.66181755065918 7.79110050201416 18.20136833190918 6.363580703735352 C 19.32891273498535 5.318089008331299 20.74678230285645 4.316289901733398 21.9139575958252 3.558518886566162 L 21.9139575958252 6.250451564788818 C 20.70168495178223 7.045032024383545 17.8059139251709 8.768462181091309 14.55936622619629 9.458303451538086 Z M 8.99908447265625 9.406825065612793 C 5.748367309570313 8.681469917297363 2.768709659576416 7.002952575683594 1.499997854232788 6.22126579284668 L 1.499997854232788 2.067882299423218 L 2.74671196937561 1.757772326469421 C 2.913488864898682 3.122249126434326 3.491212129592896 4.882427215576172 5.15552806854248 6.379030704498291 C 6.651029586791992 7.723832607269287 8.178434371948242 8.835538864135742 8.99908447265625 9.406825065612793 Z" stroke="none"/>
            <path d="M 4.268318176269531 -0.1664190292358398 C 4.268318176269531 -0.1664190292358398 3.581317901611328 2.94618034362793 6.158498764038086 5.263660907745361 C 8.735677719116211 7.581140518188477 11.70498752593994 9.444830894470215 11.91602802276611 9.444830894470215 C 12.16323757171631 9.444830894470215 14.68212795257568 7.581140518188477 17.18147850036621 5.263660907745361 C 19.68083763122559 2.94618034362793 23.4139575958252 0.8952903747558594 23.4139575958252 0.8952903747558594 L 23.4139575958252 7.039590835571289 C 23.4139575958252 7.039590835571289 17.76951789855957 11.25238037109375 11.91602802276611 11.25238037109375 C 6.062538146972656 11.25238037109375 -1.9073486328125e-06 7.039590835571289 -1.9073486328125e-06 7.039590835571289 L -1.9073486328125e-06 0.8952903747558594 L 4.268318176269531 -0.1664190292358398 Z" stroke="none" fill="#1cd3d8"/>
          </g>
          <g id="Tracé_55" data-name="Tracé 55" transform="translate(2.551 -26.994)" fill="#1cd3d8">
            <path d="M 1.697166204452515 34.57368850708008 C 1.697104811668396 34.57368850708008 1.697139739990234 34.57368850708008 1.697078347206116 34.57368850708008 C 1.630713939666748 34.57368850708008 1.564901947975159 34.57292175292969 1.499998331069946 34.57152557373047 L 1.499998331069946 30.7036247253418 C 2.723829984664917 30.21798133850098 5.108031749725342 29.36370086669922 7.827042579650879 28.87191009521484 C 6.913199424743652 29.08207511901855 6.031628608703613 29.57525825500488 5.155538558959961 30.36306762695313 C 3.972203731536865 31.42714881896973 3.11929726600647 32.93808746337891 2.827661275863647 34.46404647827148 C 2.641589641571045 34.51353073120117 2.292811155319214 34.57368850708008 1.697166204452515 34.57368850708008 Z M 21.91397857666016 32.64824676513672 C 20.81189918518066 31.67570495605469 19.52114486694336 30.52475929260254 18.43433952331543 29.52301025390625 C 19.91779518127441 29.93940734863281 21.14564514160156 30.3933048248291 21.91397857666016 30.70049476623535 L 21.91397857666016 32.64824676513672 Z M 11.71165752410889 29.34463500976563 C 11.54166603088379 29.33402442932129 11.24629497528076 29.24092674255371 10.9600887298584 29.15071678161621 C 10.39966869354248 28.97407722473145 9.702218055725098 28.75425720214844 8.867758750915527 28.75425720214844 C 8.692020416259766 28.75425720214844 8.517844200134277 28.76395225524902 8.344876289367676 28.78343772888184 C 9.446796417236328 28.60638618469238 10.5943489074707 28.49447822570801 11.7340087890625 28.49447822570801 C 12.19863128662109 28.49447822570801 12.66443824768066 28.51309585571289 13.12727546691895 28.54712104797363 C 12.86035537719727 28.6871452331543 12.61861610412598 28.83483695983887 12.40228843688965 28.96700668334961 C 12.18150043487549 29.10189437866211 11.85285377502441 29.30268096923828 11.71165752410889 29.34463500976563 Z" stroke="none"/>
            <path d="M 1.697065830230713 36.07368469238281 C 0.794222354888916 36.07367324829102 -1.66534425716236e-06 35.95339584350586 -1.66534425716236e-06 35.95339584350586 L -1.66534425716236e-06 29.70640754699707 C -1.66534425716236e-06 29.70640754699707 5.880518436431885 26.99447822570801 11.7340087890625 26.99447822570801 C 17.58750915527344 26.99447822570801 23.41397857666016 29.70640754699707 23.41397857666016 29.70640754699707 L 23.41397857666016 35.95339584350586 C 23.41397857666016 35.95339584350586 19.68082809448242 32.72504806518555 17.18147850036621 30.40756797790527 C 16.44146347045898 29.72140502929688 15.78867816925049 29.48005294799805 15.19871711730957 29.48005294799805 C 13.79611587524414 29.48005294799805 12.75010013580322 30.84563827514648 11.74194812774658 30.84563827514648 C 10.8933277130127 30.84563827514648 9.995162010192871 30.25425338745117 8.86776065826416 30.25425338745117 C 8.092469215393066 30.25425338745117 7.208633899688721 30.53413200378418 6.15850830078125 31.47843742370605 C 5.351838111877441 32.20381927490234 4.460428237915039 33.47676849365234 4.256288528442383 35.02194595336914 C 4.142513275146484 35.88309860229492 2.833680391311646 36.07369613647461 1.697065830230713 36.07368469238281 Z" stroke="none" fill="#1cd3d8"/>
          </g>
          <g id="Tracé_56" data-name="Tracé 56" transform="translate(2.551 -26.994)" fill="#1cd3d8">
            <path d="M 21.71692848205566 34.57366943359375 C 21.12121391296387 34.57366943359375 20.77243041992188 34.51351547241211 20.58632278442383 34.46403503417969 C 20.294677734375 32.93806838989258 19.44176292419434 31.4271411895752 18.25843811035156 30.36305999755859 C 17.4125919342041 29.60244750976563 16.57361602783203 29.1163330078125 15.71772766113281 28.89424514770508 C 18.38608551025391 29.38884544372559 20.71102714538574 30.22400283813477 21.91397857666016 30.70254135131836 L 21.91397857666016 34.57151412963867 C 21.84908866882324 34.57291030883789 21.78330039978027 34.57366943359375 21.71692848205566 34.57366943359375 Z M 1.499998331069946 32.51562881469727 L 1.499998331069946 30.70046424865723 C 2.203888654708862 30.41904067993164 3.294214010238647 30.01421928405762 4.613368034362793 29.62801742553711 C 3.600353717803955 30.56734275817871 2.476255893707275 31.60999870300293 1.499998331069946 32.51562881469727 Z M 11.88523864746094 29.3430118560791 C 11.72585582733154 29.32205390930176 11.29119205474854 29.11945343017578 11.00226879119873 28.98479080200195 C 10.70974063873291 28.84843826293945 10.39117336273193 28.6999568939209 10.04684638977051 28.56614875793457 C 10.58849143981934 28.52009391784668 11.13503170013428 28.49448013305664 11.67996788024902 28.49448013305664 C 12.79225444793701 28.49448013305664 13.90947437286377 28.60013389587402 14.98453617095947 28.76871490478516 C 14.8627872467041 28.75845336914063 14.74060821533203 28.75333976745605 14.61786842346191 28.75333976745605 C 13.81060791015625 28.75333976745605 13.14745807647705 28.97327041625977 12.6146183013916 29.14998054504395 C 12.33446311950684 29.24289131164551 12.04499340057373 29.33889579772949 11.88523864746094 29.3430118560791 Z" stroke="none"/>
            <path d="M 21.71692657470703 36.07367324829102 C 20.58031272888184 36.07367324829102 19.2714672088623 35.88308715820313 19.1576976776123 35.02193832397461 C 18.95354843139648 33.47676086425781 18.06213760375977 32.20381164550781 17.25546836853027 31.47842979431152 C 16.20439910888672 30.53327560424805 15.35371875762939 30.25334358215332 14.61787033081055 30.25334358215332 C 13.54944801330566 30.25334358215332 12.72290420532227 30.84314918518066 11.8748083114624 30.84314918518066 C 10.89069557189941 30.84314918518066 9.549249649047852 29.64150047302246 7.995361328125 29.64150047302246 C 7.287844181060791 29.64150047302246 6.536330699920654 29.89058113098145 5.754368305206299 30.61564064025879 C 3.255008220672607 32.93312072753906 -1.66534425716236e-06 35.95338821411133 -1.66534425716236e-06 35.95338821411133 L -1.66534425716236e-06 29.70639991760254 C -1.66534425716236e-06 29.70639991760254 5.826468467712402 26.99448013305664 11.67996788024902 26.99448013305664 C 17.5334587097168 26.99448013305664 23.41397857666016 29.70639991760254 23.41397857666016 29.70639991760254 L 23.41397857666016 35.95338821411133 C 23.41397857666016 35.95338821411133 22.61977005004883 36.07367324829102 21.71692657470703 36.07367324829102 Z" stroke="none" fill="#1cd3d8"/>
          </g>
          <g id="Tracé_57" data-name="Tracé 57" transform="translate(2.551 8.136)" fill="#1cd3d8">
            <path d="M 14.41487407684326 9.406829833984375 C 15.23552417755127 8.835543632507324 16.76293563842773 7.723832607269287 18.25843811035156 6.379030704498291 C 19.92275428771973 4.882427215576172 20.5004768371582 3.12224817276001 20.6672534942627 1.757771253585815 L 21.91397857666016 2.067883014678955 L 21.91397857666016 6.221309185028076 C 20.64590835571289 7.002596378326416 17.66589164733887 8.681418418884277 14.41487407684326 9.406829833984375 Z M 4.534786224365234 7.951145172119141 C 3.197573661804199 7.316685199737549 2.125494956970215 6.66035795211792 1.499998331069946 6.250388145446777 L 1.499998331069946 4.901357650756836 C 2.347342967987061 5.825215816497803 3.307694673538208 6.823475360870361 4.241718292236328 7.689530849456787 C 4.338301181793213 7.779085159301758 4.435969352722168 7.866203784942627 4.534786224365234 7.951145172119141 Z" stroke="none"/>
            <path d="M 19.14564895629883 -0.1664190292358398 L 23.41397857666016 0.8952903747558594 L 23.41397857666016 7.039590835571289 C 23.41397857666016 7.039590835571289 17.3514289855957 11.25238037109375 11.49793815612793 11.25238037109375 C 5.644437789916992 11.25238037109375 -1.9073486328125e-06 7.039590835571289 -1.9073486328125e-06 7.039590835571289 L -1.9073486328125e-06 0.8952903747558594 C -1.9073486328125e-06 0.8952903747558594 2.762237548828125 4.272120475769043 5.261598587036133 6.589600563049316 C 7.760948181152344 8.90708065032959 11.25072860717773 9.444830894470215 11.49793815612793 9.444830894470215 C 11.7089786529541 9.444830894470215 14.67828845977783 7.581140518188477 17.25546836853027 5.263660907745361 C 19.83264923095703 2.94618034362793 19.14564895629883 -0.1664190292358398 19.14564895629883 -0.1664190292358398 Z" stroke="none" fill="#1cd3d8"/>
          </g>
        </g>
        <g id="Groupe_48" data-name="Groupe 48">
          <path id="Tracé_58" data-name="Tracé 58" d="M7060.221-405.033l-4.242.323v-4.406l3.892,1.869Z" transform="translate(-7031.519 419.953)" fill="#1cd3d8" stroke="#1cd3d8" stroke-linecap="round" stroke-linejoin="round" stroke-width="3"/>
          <path id="Tracé_59" data-name="Tracé 59" d="M7058.756-395.46l2.283-.767-.554-3.027-1.729.793Z" transform="translate(-7033.888 401.641)" fill="#1cd3d8" stroke="#1cd3d8" stroke-linecap="round" stroke-linejoin="round" stroke-width="3"/>
          <path id="Tracé_60" data-name="Tracé 60" d="M7072.336-396.458l-2.274-1.081.609-2.787,1.665.891Z" transform="translate(-7068.383 402.638)" fill="#1cd3d8" stroke="#1cd3d8" stroke-linecap="round" stroke-linejoin="round" stroke-width="3"/>
          <path id="Tracé_61" data-name="Tracé 61" d="M7067.194-404.978l3.953.267v-4.406l-3.437,1.7Z" transform="translate(-7067.194 419.953)" fill="#1cd3d8" stroke="#1cd3d8" stroke-linecap="round" stroke-linejoin="round" stroke-width="3"/>
        </g>
      </g>
    </g>
    <g transform="matrix(1, 0, 0, 1, 292.87, 215)" filter="url(#soli_asque.fr)">
      <text id="soli_asque.fr-2" data-name="soli   asque.fr" transform="translate(9 60)" fill="#fff" font-size="51" font-family="BrandonGrotesque-Bold, Brandon Grotesque" font-weight="700"><tspan x="0" y="0" xml:space="preserve">soli   asque.fr</tspan></text>
    </g>
  </g>
</svg>
