<svg xmlns="http://www.w3.org/2000/svg" viewBox="0 0 2067.15 409.06"><defs><style>.cls-1,.cls-2,.cls-4{fill:#fff;}.cls-2{stroke:#fff;}.cls-2,.cls-3{stroke-width:10px;}.cls-3,.cls-5{fill:#1cd3d8;}.cls-3{stroke:#1cd3d8;stroke-linecap:round;stroke-linejoin:round;}.cls-4{stroke:#000;stroke-miterlimit:10;}</style></defs><g id="Calque_2" data-name="Calque 2"><g id="Calque_1-2" data-name="Calque 1"><g id="solimasque.fr"><path id="Tracé_71-2" data-name="Tracé 71-2" class="cls-1" d="M4.45,276.62c8.51,6.48,27.14,15,53.87,15,40.9,0,64.4-22.68,64.4-49.41,0-31.59-23.49-45-54.68-57.1-15-6.08-22.28-8.51-22.28-15.8,0-5.27,4.05-9.32,13.77-9.32,15.39,0,33.62,8.51,33.62,8.51,3.24,1.21,7.69.81,9.72-2.84L113,145c2-4.05,0-8.51-3.64-10.93-8.51-5.67-25.91-12.56-49.82-12.56C18.22,121.51,0,144.6,0,169.3s14.58,41.31,45.76,53.46c21.47,8.5,27.14,13,27.14,20.25,0,6.88-5.67,10.12-13.77,10.12-18.63,0-36.86-9.72-36.86-9.72-3.64-2-7.69-1.21-9.31,2.84L2,268.12C.4,271.36,2,274.6,4.45,276.62ZM145.8,206.16c0,46.57,37.26,85.45,83,85.45s83-38.88,83-85.45c0-45.77-37.26-84.65-83-84.65S145.8,160.39,145.8,206.16Zm44.14,0c0-22.68,17-40.91,38.89-40.91,21.46,0,38.88,18.23,38.88,40.91,0,23.08-17.42,41.71-38.88,41.71C207,247.87,189.94,229.24,189.94,206.16Zm158,73.7a8,8,0,0,0,7.7,7.7h34a8,8,0,0,0,7.7-7.7V11.75a8,8,0,0,0-7.7-7.7h-34a8,8,0,0,0-7.7,7.7ZM469.8,68.05a28.1,28.1,0,0,0,28.35-27.83v-.11a28.09,28.09,0,0,0-28.23-27.95h-.12a27.65,27.65,0,0,0-27.54,27.77v.18a27.65,27.65,0,0,0,27.37,27.94ZM445.9,279.86a8,8,0,0,0,7.7,7.7h33.61a8,8,0,0,0,7.7-7.7V133.25a7.69,7.69,0,0,0-7.69-7.69H453.6a7.69,7.69,0,0,0-7.7,7.68V279.86Zm354.38-43.74c0,34.42,22.28,55.48,54.68,55.48,25.1,0,40.09-12.15,49.4-20.65l4.87,10.94c2,4.45,4,5.67,6.88,5.67h14.58a8,8,0,0,0,7.69-7.7V192c0-44.15-11.74-70.47-62.36-70.47-25.92,0-51.85,6.48-55.09,7.7-3.64,1.21-6.88,4-5.66,10.12l3.64,21.06c.81,5.26,3.65,8.91,9.32,7.29,9.31-2.83,30.37-6.07,45.36-6.07s21.46,7.29,21.06,27.94a104,104,0,0,0-29.57-4.45c-41.31,0-64.8,22.27-64.8,51Zm44.55,0c0-13,10.53-21.87,26.33-21.87,11.74,0,22.68,4.86,22.68,4.86v22.28c-2.43,4.86-15,15.8-28,15.8-12.55,0-21-8.92-21-21.07Zm133.65,40.5c8.5,6.48,27.13,15,53.86,15,40.91,0,64.4-22.68,64.4-49.41,0-31.59-23.49-44.95-54.67-57.1-15-6.08-22.28-8.5-22.28-15.8,0-5.26,4.05-9.31,13.77-9.31,15.39,0,33.62,8.5,33.62,8.5,3.24,1.22,7.69.81,9.72-2.83L1087,145c2-4.05,0-8.5-3.64-10.93-8.51-5.67-25.92-12.55-49.82-12.55-41.31,0-59.53,23.08-59.53,47.79s14.58,41.31,45.76,53.46c21.47,8.5,27.14,13,27.14,20.25,0,6.88-5.67,10.12-13.77,10.12-18.63,0-36.86-9.72-36.86-9.72-3.64-2-7.7-1.21-9.31,2.84l-10.94,21.87c-1.62,3.24,0,6.48,2.43,8.5Zm141.75-70.06c0,47.79,36.45,85.05,80.2,85.05,15.8,0,30.37-5.67,36-8.91V401.36c0,4.86,2.43,7.7,9.72,7.7h32.4a8,8,0,0,0,7.7-7.7V133.26a7.69,7.69,0,0,0-7.69-7.7h-15.82a7.27,7.27,0,0,0-6.88,4.86l-5.27,13.37c-6.07-8.11-25.92-22.28-52.24-22.28C1153.84,121.51,1120.23,160,1120.23,206.56Zm47.39.81c0-22.68,15.39-42.12,37.67-42.12,20.65,0,30.78,16.2,33.2,24.71v48.6s-11.33,9.31-31.58,9.31c-22.69,0-39.3-17.82-39.3-40.5Zm164.43,4.45c0,41.31,18.23,79.79,68.44,79.79,32,0,47-17,54.28-23.49l4.85,13.37c1.21,3.23,3.65,6.07,7.7,6.07h15a8,8,0,0,0,7.7-7.7V133.25a7.7,7.7,0,0,0-7.68-7.7h-30.8c-6.48,0-8.91,1.62-8.91,7.7v84.24c-2.43,14.58-15.39,30.37-32.4,30.37-18.63,0-29.56-13.36-29.56-34.83V133.25a7.7,7.7,0,0,0-7.69-7.7h-33.22a7.7,7.7,0,0,0-7.7,7.69h0Zm194.4-5.26c0,46.57,34.42,85.05,83,85.05,26.33,0,47-9.72,60.35-22.27,4-3.24,3.24-7.7.4-10.53l-16.61-19c-2.83-3.24-6.48-2.43-10.53,0a56.24,56.24,0,0,1-31.59,10.12,38.63,38.63,0,0,1-38.88-35.23H1676.3a7.83,7.83,0,0,0,7.69-6.89,99.71,99.71,0,0,0,.81-10.93c0-43.74-34-75.33-75.73-75.33C1560.87,121.51,1526.45,160.79,1526.45,206.56Zm49.81-20.25a31.91,31.91,0,0,1,31.59-27.54c15.39,0,28.35,12.55,29.56,27.54ZM1708.7,258.4a33.35,33.35,0,0,0,33.21,33.21c18.22,0,33.61-15,33.61-33.21s-15.39-33.62-33.61-33.62S1708.7,240.17,1708.7,258.4Zm115,21.46a8,8,0,0,0,7.7,7.7h35.23a8,8,0,0,0,7.7-7.7V168.08h40.5a7.69,7.69,0,0,0,7.7-7.69h0V133.25a7.45,7.45,0,0,0-7.19-7.7h-41V81.81c0-23.49,9.72-36.85,27.14-36.85,8.91,0,18.63,4.86,23.9,8.1,3.64,2,8.1,1.21,9.72-2l13.77-25.93a8,8,0,0,0-1.62-9.31C1940,9.32,1920.92,0,1899.46,0c-42.93,0-75.74,28.35-75.74,81.81v43.75H1810a7.44,7.44,0,0,0-7.69,7.19,4.34,4.34,0,0,0,0,.51v27.13a7.7,7.7,0,0,0,7.68,7.7h13.78Zm129.6,0a8,8,0,0,0,7.7,7.7h31.18c5.67,0,9.32-2,9.32-7.7v-98c2.83-5.67,12.55-16.61,28.75-16.61,4.46,0,10.53,2,11.75,2.43,3.24,1.62,7.29,0,9.31-3.64l15-26.32c4.86-10.13-12.15-16.2-31.19-16.2-25.1,0-40.09,17-45.76,25.11l-5.67-15.8c-1.22-3.25-3.65-5.27-7.29-5.27H1961a7.7,7.7,0,0,0-7.7,7.69h0Z"/><g id="favicon2"><path id="Tracé_50-2" data-name="Tracé 50-2" class="cls-2" d="M538.68,278.46c-.61,4.57,1.52,7.5,5.79,7.5h19.82c2.44,0,5.18-2.28,5.49-4.57l22-145.85H593l44.15,104c.61,2,8.59,2.57,11,2.57h13.41c2.75,0,10.54-3.61,11.15-5.57l46.17-101h.92L742.34,281.4a6.39,6.39,0,0,0,5.79,4.56H768c4.27,0,6.4-2.93,5.49-7.5L735.94,59.19c-.61-2.61-3.05-4.89-5.49-4.89h-4.88a5.79,5.79,0,0,0-5.18,3.59L657,224.62h-1.22L592,57.88c-.61-2-3.35-3.59-5.18-3.59H582c-2.44,0-4.88,2.28-5.49,4.89Z"/></g><g id="Groupe_46" data-name="Groupe 46"><polygon class="cls-3" points="575.44 129.85 575.43 152.9 567.57 149.16 566.07 148.45 564.58 147.74 564.57 147.74 557.83 144.53 562.55 122.95 566.63 125.13 567.25 125.47 568.98 126.39 570.7 127.31 575.44 129.85"/><polygon class="cls-3" points="575.43 188.94 575.43 223.06 571.23 222.78 568.14 222.57 565.15 222.37 564.58 222.33 544.82 221 548.83 202.13 564.57 194.33 564.58 194.32 566.07 193.58 567.57 192.84 575.43 188.94"/><polygon class="cls-3" points="755.07 146.96 745.88 150.05 744.38 150.55 742.88 151.06 737.39 152.9 737.38 129.66 741.33 127.85 743.15 127.02 744.96 126.19 745.58 125.9 750.78 123.52 755.07 146.96"/><polygon class="cls-3" points="767.08 220.56 745.88 222.17 745.59 222.2 745.58 222.2 742.71 222.41 742.7 222.41 739.74 222.64 734.22 223.06 734.22 188.94 742.88 193.1 744.38 193.82 745.88 194.54 764.36 203.41 767.08 220.56"/><circle class="cls-4" cx="654.09" cy="179.44" r="64.72"/><g id="Tracé_54" data-name="Tracé 54"><path class="cls-5" d="M693.76,248.88l0,0,.09,0Z"/><path class="cls-5" d="M745.58,125.9l-1.74-.76-.69-.3-.79-.33-1.09-.46-2.5-1-2-.81-1.42-.55c-15.13-5.77-44.43-15.38-74.5-16.52h0c-1.22,0-2.43-.07-3.65-.09L655,105c-.57,0-1.14,0-1.7,0-1.22,0-2.43,0-3.65.09h0c-30.07,1.14-59.37,10.75-74.5,16.52l-1.42.55-2,.81c-.91.36-1.75.71-2.5,1l-1.09.46-.79.33c-.25.11-.46.21-.68.29h0c-1.33.57-2,.9-2,.9v21.7h0v46.59h0v28.23l.14.09.16.11.21.15h0c4.93,3.59,44.49,31.18,86.06,32.24.82,0,1.63,0,2.45,0,.54,0,1.08,0,1.62,0s1.08,0,1.62,0c12.43,0,25.54-2.7,36.86-6.27l0,0h.08a199.06,199.06,0,0,0,51.52-26l.22-.15.16-.11.14-.09V126Zm-58.34,92.19c-14,11.3-27.37,20-32,22.4-5.83-3.05-25.55-16-43-31.69-20-17.94-14.63-42-14.63-42h0c1.69-11.77,8.51-21.46,14.67-27,8.13-7.31,15-9.48,21-9.48,8.73,0,15.69,4.58,22.26,4.58.24,0,.49,0,.73,0h.3c6.56,0,13-4.56,21.24-4.56,5.69,0,12.28,2.16,20.42,9.48,6.17,5.55,13,15.24,14.67,27l.06.43,0,.2a2.07,2.07,0,0,0,0,.22c.66,4.09,2.57,21.88-10.77,37.1a48.27,48.27,0,0,1-4,4.08C694.59,212,690.9,215.15,687.24,218.09Z"/></g><polygon class="cls-3" points="767.08 220.56 745.88 222.17 745.59 222.2 745.58 222.2 742.71 222.41 742.7 222.41 739.74 222.64 734.22 223.06 734.22 188.94 742.88 193.1 744.38 193.82 745.88 194.54 764.36 203.41 767.08 220.56"/><polygon class="cls-3" points="755.07 146.96 745.88 150.05 744.38 150.55 742.88 151.06 737.39 152.9 737.38 129.66 741.33 127.85 743.15 127.02 744.96 126.19 745.58 125.9 750.78 123.52 755.07 146.96"/><polygon class="cls-3" points="575.44 129.85 575.43 152.9 567.57 149.16 566.07 148.45 564.58 147.74 564.57 147.74 557.83 144.53 562.55 122.95 566.63 125.13 567.25 125.47 568.98 126.39 570.7 127.31 575.44 129.85"/><polygon class="cls-3" points="575.43 188.94 575.43 223.06 571.23 222.78 568.14 222.57 565.15 222.37 564.58 222.33 544.82 221 548.83 202.13 564.57 194.33 564.58 194.32 566.07 193.58 567.57 192.84 575.43 188.94"/></g></g></g></g></svg>